<svg width="300" height="98" viewBox="0 0 300 98" fill="none" xmlns="http://www.w3.org/2000/svg">
<path d="M53.302 85.3328L59.7274 85.4664L55.8884 90.5766L51.6446 97.2656L50.0572 90.3399L47.5672 84.7845L53.302 85.3328Z" fill="#009AD5"/>
<path d="M33.4639 82.1047L39.9306 85.0657L33.5051 88.312L27.9452 92.6533L28.3605 85.598L28.2289 79.3402L33.4639 82.1047Z" fill="#009AD5"/>
<path d="M78.276 84.6648L78.8762 89.9798L73.2405 87.1705L68.1062 84.0215L72.4261 81.1554L78.3479 78.6966L78.276 84.6648Z" fill="#009AD5"/>
<path d="M51.3753 17.1179C61.0371 16.7516 69.5496 19.6581 75.7551 23.6694C81.1463 27.1565 84.0867 30.6375 85.4766 33.5397C87.9872 38.7836 89.5478 42.3072 90.4463 48.0368C91.0488 51.8822 89.8787 56.8691 88.5998 60.5526C86.5765 66.3813 83.7555 71.2427 78.4589 74.6731C76.0203 76.2538 73.7422 77.6422 70.9972 78.6197C66.9096 80.0749 62.7006 81.291 58.3724 81.6979C53.5219 82.1532 49.5226 82.6857 44.6845 82.1149C41.8305 81.777 37.9711 80.4552 35.4318 79.1295C29.8822 76.2314 27.2522 73.6389 23.2715 68.7432C21.1742 66.1648 19.003 63.0237 18.0202 58.5408C16.7124 52.5684 17.0128 45.0899 17.5227 41.8517C18.1375 37.9477 18.4581 36.5674 20.6006 33.2281C23.2962 29.0245 29.3824 21.5525 34.1486 20.6922C41.8551 19.3018 47.2321 17.3304 51.3753 17.1179Z" fill="#009AD5"/>
<path d="M176.586 62.875C178.032 62.875 180.202 62.89 183.095 62.9198V63.0988H183.592C183.532 64.6873 183.501 66.537 183.501 68.6476V71.1536C183.501 71.4892 183.494 72.0038 183.479 72.6974C183.464 73.391 183.456 73.9057 183.456 74.2413C183.456 75.2108 183.302 76.0684 182.993 76.8142C182.684 77.56 182.277 78.1605 181.773 78.6155C181.268 79.0704 180.658 79.4432 179.942 79.7341C179.226 80.0249 178.503 80.2264 177.772 80.3383C177.042 80.4501 176.254 80.5061 175.411 80.5061C174.597 80.5061 173.833 80.4537 173.117 80.3493C172.409 80.2524 171.689 80.0623 170.958 79.7789C170.228 79.488 169.599 79.1188 169.072 78.6713C168.544 78.2239 168.107 77.6235 167.761 76.8703C167.414 76.1171 167.222 75.2481 167.184 74.2637C167.214 70.5943 167.23 67.857 167.23 66.0521V65.918C167.23 65.8658 167.222 65.6829 167.207 65.3696C167.192 65.049 167.184 64.7767 167.184 64.553C167.184 63.6581 167.26 63.1509 167.41 63.0316C167.448 63.0316 167.505 63.0354 167.58 63.0429C167.655 63.0503 167.712 63.054 167.749 63.054C169.015 62.9943 170.484 62.9644 172.156 62.9644H173.693C173.753 62.9718 173.833 62.9982 173.93 63.0429C174.036 63.0802 174.107 63.0988 174.145 63.0988C174.153 63.4642 174.168 64.0944 174.19 64.9894C174.22 65.8844 174.239 66.6601 174.247 67.3164C174.262 67.9727 174.266 68.6177 174.258 69.2516V73.6147C174.258 73.8906 174.266 74.1143 174.281 74.2858C174.296 74.4574 174.33 74.6589 174.382 74.8901C174.443 75.1212 174.544 75.2964 174.688 75.4157C174.838 75.5276 175.027 75.5836 175.253 75.5836C175.569 75.5836 175.825 75.453 176.021 75.192C176.217 74.9236 176.315 74.6142 176.315 74.2637V70.1691C176.307 69.6694 176.311 68.8826 176.326 67.8086C176.349 66.7347 176.352 65.8955 176.337 65.2914V64.4858C176.337 64.4038 176.33 64.2807 176.315 64.1167C176.3 63.9452 176.292 63.8146 176.292 63.7251V63.1884C176.315 63.0168 176.413 62.9123 176.586 62.875Z" fill="#009AD5"/>
<path d="M162.706 62.9422C162.879 62.9422 163 63.0465 163.067 63.2553C163.052 63.3895 163.045 63.5724 163.045 63.8036C163.052 64.0348 163.052 64.2175 163.045 64.3517V64.9111C162.969 67.2007 162.932 69.2442 162.932 71.0416V74.5543C162.932 75.2107 162.841 75.8187 162.661 76.3781C162.48 76.9374 162.239 77.4147 161.937 77.81C161.636 78.2052 161.275 78.5633 160.853 78.884C160.438 79.1972 160.009 79.4508 159.564 79.6447C159.12 79.8386 158.649 79.9988 158.152 80.1256C157.662 80.2524 157.199 80.3383 156.762 80.3831C156.333 80.4353 155.911 80.4613 155.496 80.4613C154.66 80.4613 153.895 80.4054 153.202 80.2935C152.517 80.1891 151.854 80.0025 151.214 79.7341C150.581 79.4581 150.046 79.1039 149.609 78.6713C149.172 78.2388 148.822 77.6756 148.558 76.982C148.302 76.2884 148.174 75.4866 148.174 74.5767C148.174 74.1741 148.295 73.9728 148.536 73.9728H153.688C153.922 73.9728 154.095 74.0288 154.208 74.1407C154.321 74.2525 154.389 74.3904 154.412 74.5543C154.434 74.7184 154.453 74.8825 154.468 75.0466C154.491 75.2106 154.547 75.3487 154.638 75.4605C154.736 75.5724 154.886 75.6284 155.09 75.6284C155.278 75.6284 155.429 75.5799 155.542 75.4829C155.662 75.3785 155.745 75.2258 155.79 75.0245C155.843 74.8231 155.873 74.6476 155.88 74.4985C155.896 74.3493 155.903 74.1592 155.903 73.928V73.8384C155.896 73.3014 155.873 72.2648 155.836 70.7285C155.805 69.1922 155.79 67.9913 155.79 67.1262V63.3225C155.79 63.1062 155.949 62.9795 156.265 62.9422C156.506 62.9422 156.868 62.9458 157.35 62.9533C157.832 62.9608 158.193 62.9644 158.434 62.9644C158.615 62.9644 158.839 62.9637 159.107 62.9618L160.971 62.9448C161.239 62.9429 161.463 62.9422 161.644 62.9422H162.706Z" fill="#009AD5"/>
<path fill-rule="evenodd" clip-rule="evenodd" d="M255.388 62.4945C256.299 62.4945 257.132 62.599 257.885 62.8078C258.646 63.0092 259.294 63.2814 259.829 63.6244C260.364 63.9675 260.838 64.389 261.252 64.8887C261.667 65.381 261.998 65.8956 262.247 66.4326C262.495 66.9696 262.699 67.555 262.857 68.1889C263.015 68.8154 263.125 69.4159 263.185 69.9902C263.245 70.5644 263.275 71.161 263.275 71.7799C263.275 73.197 263.068 74.4613 262.654 75.5725C262.247 76.6838 261.678 77.5937 260.947 78.3022C260.224 79.0107 259.38 79.5478 258.416 79.9133C257.452 80.2787 256.397 80.4613 255.252 80.4613C254.401 80.4613 253.625 80.3793 252.924 80.2152C252.231 80.0586 251.629 79.8421 251.116 79.5662C250.604 79.2903 250.148 78.9399 249.749 78.5148C249.357 78.0898 249.03 77.6385 248.766 77.1612C248.51 76.6764 248.291 76.1244 248.111 75.5053C247.93 74.8789 247.79 74.2597 247.692 73.6481C247.602 73.0366 247.53 72.3542 247.478 71.601C247.478 65.9403 250.114 62.9048 255.388 62.4945ZM255.523 66.5443C255.328 66.5443 255.147 66.5704 254.981 66.6226C254.815 66.6748 254.668 66.7644 254.54 66.8911C254.42 67.0104 254.311 67.1335 254.213 67.2603C254.115 67.387 254.032 67.5586 253.964 67.7749C253.896 67.9912 253.836 68.1852 253.783 68.3567C253.731 68.5208 253.689 68.7445 253.659 69.0279C253.629 69.3038 253.602 69.5314 253.58 69.7103C253.565 69.8819 253.554 70.128 253.546 70.4487C253.538 70.7618 253.535 70.9931 253.535 71.1422V72.0484C253.535 72.3393 253.538 72.5968 253.546 72.8205C253.554 73.0442 253.568 73.3201 253.591 73.6481C253.621 73.9688 253.659 74.2524 253.704 74.4985C253.749 74.7371 253.813 74.9871 253.896 75.2482C253.986 75.5092 254.092 75.7254 254.213 75.8969C254.333 76.0684 254.484 76.2101 254.665 76.3219C254.853 76.4263 255.064 76.4787 255.298 76.4787C255.561 76.4787 255.795 76.4227 255.998 76.3109C256.209 76.199 256.379 76.0646 256.507 75.908C256.642 75.7514 256.755 75.5351 256.846 75.2592C256.936 74.9833 257.004 74.7408 257.049 74.5319C257.094 74.3157 257.128 74.0359 257.151 73.6929C257.173 73.3425 257.184 73.0777 257.184 72.8988C257.192 72.7198 257.196 72.4698 257.196 72.1491V72.0039C257.226 71.7503 257.241 71.3548 257.241 70.8179V70.3704C257.249 70.1094 257.252 69.9004 257.252 69.7438C257.252 69.5797 257.241 69.3485 257.218 69.0503C257.196 68.752 257.166 68.5058 257.128 68.3119C257.09 68.118 257.026 67.8979 256.936 67.6518C256.853 67.4058 256.751 67.212 256.631 67.0703C256.51 66.9211 256.356 66.7981 256.167 66.7011C255.979 66.5967 255.764 66.5443 255.523 66.5443Z" fill="#009AD5"/>
<path fill-rule="evenodd" clip-rule="evenodd" d="M127.486 62.5694C128.506 62.5694 129.399 62.6658 130.164 62.8586C130.929 63.044 131.54 63.285 131.998 63.5816C132.455 63.8708 132.83 64.2377 133.123 64.6826C133.415 65.1275 133.618 65.565 133.73 65.9951C133.85 66.4252 133.929 66.9073 133.967 67.4412C133.967 67.5746 133.708 67.682 133.19 67.7636C132.673 67.8377 132.016 67.8823 131.221 67.8971C130.434 67.9119 129.849 67.9195 129.466 67.9195C129.084 67.9195 128.761 67.9156 128.499 67.9082C128.199 67.9082 128.049 67.849 128.049 67.7304V67.152C127.981 67.0185 127.801 66.9518 127.509 66.9518C126.293 66.9518 125.686 67.9231 125.686 69.8657V70.0438C126.361 69.2578 127.441 68.8648 128.926 68.8648C130.584 68.8648 131.956 69.3654 133.044 70.3665C134.139 71.3675 134.687 72.6392 134.687 74.1815C134.687 75.0565 134.544 75.85 134.259 76.5618C133.982 77.2662 133.614 77.8521 133.157 78.3192C132.699 78.7789 132.159 79.1719 131.536 79.4981C130.921 79.817 130.291 80.0468 129.646 80.1877C129.009 80.336 128.348 80.4249 127.666 80.4545C124.868 80.4545 122.772 79.6871 121.377 78.1522C119.989 76.6098 119.295 74.3964 119.295 71.512C119.295 69.7546 119.618 68.2085 120.263 66.8738C120.915 65.5391 121.861 64.4936 123.098 63.7373C124.343 62.981 125.806 62.5916 127.486 62.5694ZM127.396 72.1794C127.021 72.1794 126.702 72.2461 126.44 72.3796C126.177 72.5131 125.982 72.7059 125.855 72.958C125.727 73.2027 125.637 73.4623 125.585 73.7366C125.532 74.0109 125.506 74.3297 125.506 74.693C125.506 75.301 125.66 75.8277 125.967 76.2726C126.282 76.7174 126.728 76.9397 127.306 76.9398C127.681 76.9398 128 76.8658 128.262 76.7175C128.532 76.5618 128.735 76.354 128.87 76.0945C129.005 75.835 129.099 75.5718 129.151 75.3049C129.211 75.0305 129.241 74.7376 129.241 74.4262C129.204 73.6995 129.046 73.1434 128.769 72.7578C128.499 72.3723 128.041 72.1794 127.396 72.1794Z" fill="#009AD5"/>
<path fill-rule="evenodd" clip-rule="evenodd" d="M292.799 62.5694C293.819 62.5694 294.712 62.6658 295.477 62.8586C296.242 63.044 296.853 63.285 297.311 63.5816C297.768 63.8708 298.143 64.2377 298.436 64.6826C298.729 65.1275 298.931 65.565 299.044 65.9951C299.164 66.4252 299.242 66.9073 299.28 67.4412C299.28 67.5746 299.021 67.682 298.504 67.7636C297.986 67.8377 297.33 67.8823 296.535 67.8971C295.747 67.9119 295.162 67.9195 294.779 67.9195C294.397 67.9195 294.074 67.9156 293.812 67.9082C293.512 67.9082 293.362 67.849 293.362 67.7304V67.152C293.294 67.0185 293.114 66.9518 292.822 66.9518C291.607 66.9518 290.999 67.9231 290.999 69.8657V70.0438C291.674 69.2578 292.754 68.8648 294.239 68.8648C295.897 68.8648 297.27 69.3654 298.357 70.3665C299.452 71.3675 300 72.6392 300 74.1815C300 75.0565 299.857 75.85 299.572 76.5618C299.295 77.2662 298.927 77.8521 298.47 78.3192C298.012 78.7789 297.472 79.1719 296.85 79.4981C296.235 79.817 295.604 80.0468 294.959 80.1877C294.322 80.336 293.662 80.4249 292.979 80.4545C290.181 80.4545 288.085 79.6871 286.69 78.1522C285.302 76.6098 284.608 74.3964 284.608 71.512C284.608 69.7546 284.931 68.2085 285.576 66.8738C286.228 65.5391 287.174 64.4936 288.411 63.7373C289.656 62.981 291.119 62.5916 292.799 62.5694ZM292.709 72.1794C292.334 72.1794 292.015 72.2461 291.753 72.3796C291.49 72.5131 291.295 72.7059 291.168 72.958C291.04 73.2027 290.95 73.4623 290.898 73.7366C290.845 74.0109 290.819 74.3297 290.819 74.693C290.819 75.301 290.973 75.8277 291.28 76.2726C291.595 76.7174 292.042 76.9397 292.619 76.9398C292.994 76.9398 293.313 76.8658 293.576 76.7175C293.846 76.5618 294.048 76.354 294.183 76.0945C294.318 75.835 294.412 75.5718 294.464 75.3049C294.524 75.0305 294.554 74.7376 294.554 74.4262C294.517 73.6995 294.359 73.1434 294.082 72.7578C293.812 72.3723 293.354 72.1794 292.709 72.1794Z" fill="#009AD5"/>
<path d="M236.988 62.5617C237.779 62.5617 238.532 62.6252 239.248 62.752C239.963 62.8713 240.645 63.0689 241.293 63.3449C241.941 63.6134 242.498 63.949 242.965 64.3517C243.44 64.747 243.817 65.2392 244.096 65.8284C244.374 66.4176 244.513 67.0739 244.513 67.7973C244.513 68.4312 244.419 69.0204 244.231 69.5649C244.05 70.1093 243.817 70.5719 243.531 70.9522C243.252 71.3326 242.898 71.7203 242.468 72.1156C242.046 72.5109 241.636 72.854 241.237 73.1449C240.837 73.4283 240.382 73.7714 239.869 74.1741C239.365 74.5768 238.931 74.9571 238.57 75.3151C239.082 75.3151 239.865 75.3004 240.92 75.2706C241.982 75.2407 242.789 75.2258 243.338 75.2258C243.858 75.2258 244.208 75.401 244.389 75.7514C244.578 76.0945 244.672 76.5906 244.672 77.2395C244.672 77.4408 244.661 77.784 244.638 78.2687C244.615 78.7459 244.604 79.1113 244.604 79.3649V79.5662C244.604 79.6781 244.596 79.764 244.581 79.8237C244.566 79.8833 244.525 79.9393 244.457 79.9915C244.389 80.0437 244.288 80.0809 244.152 80.1032H243.338C242.766 80.0883 241.545 80.0587 239.677 80.0139C236.664 80.0139 233.372 80.0735 229.801 80.1928V79.9691C229.688 79.902 229.594 79.7675 229.518 79.5662C229.451 79.3649 229.417 79.1411 229.417 78.8951V75.6284C229.417 75.4569 229.673 75.2032 230.185 74.8677C232.257 73.4805 233.741 72.4736 234.637 71.8471L235.338 71.3101C236.965 70.0572 237.779 68.9385 237.779 67.9541C237.779 67.6409 237.685 67.3947 237.496 67.2158C237.316 67.0368 237.071 66.9473 236.762 66.9472C236.498 66.9472 236.287 67.0068 236.129 67.1262C235.978 67.238 235.873 67.3797 235.813 67.5512C235.76 67.7153 235.715 67.8832 235.677 68.0548C235.647 68.2263 235.598 68.3829 235.53 68.5246C235.47 68.6662 235.376 68.7519 235.248 68.7817H230.004C229.583 68.7817 229.372 68.67 229.371 68.4463C229.484 67.3723 229.744 66.4511 230.151 65.6829C230.558 64.9073 231.1 64.2956 231.778 63.8481C232.456 63.4007 233.221 63.0764 234.072 62.875C234.924 62.6662 235.895 62.5617 236.988 62.5617Z" fill="#009AD5"/>
<path d="M274.149 62.5617C274.94 62.5617 275.694 62.6252 276.409 62.752C277.125 62.8713 277.807 63.0689 278.455 63.3449C279.103 63.6134 279.66 63.949 280.127 64.3517C280.602 64.747 280.978 65.2393 281.257 65.8284C281.536 66.4176 281.675 67.0739 281.675 67.7973C281.675 68.4312 281.581 69.0205 281.393 69.5649C281.212 70.1093 280.978 70.5719 280.692 70.9522C280.413 71.3326 280.059 71.7204 279.63 72.1156C279.208 72.5109 278.797 72.854 278.398 73.1449C277.999 73.4283 277.543 73.7714 277.031 74.1741C276.526 74.5768 276.093 74.9571 275.732 75.3151C276.244 75.3151 277.027 75.3004 278.082 75.2706C279.144 75.2407 279.95 75.2258 280.5 75.2258C281.02 75.2258 281.37 75.4009 281.551 75.7514C281.739 76.0945 281.834 76.5906 281.834 77.2395C281.834 77.4408 281.822 77.784 281.8 78.2687C281.777 78.7459 281.766 79.1113 281.766 79.3649V79.5662C281.766 79.6781 281.758 79.764 281.743 79.8237C281.728 79.8833 281.687 79.9393 281.619 79.9915C281.551 80.0437 281.449 80.0808 281.314 80.1032H280.5C279.927 80.0883 278.707 80.0587 276.839 80.0139C273.826 80.0139 270.533 80.0735 266.963 80.1928V79.9691C266.85 79.902 266.755 79.7676 266.68 79.5662C266.612 79.3649 266.578 79.1411 266.578 78.8951V75.6284C266.579 75.4569 266.835 75.2032 267.347 74.8677C269.418 73.4804 270.903 72.4736 271.799 71.8471L272.5 71.3101C274.127 70.0572 274.94 68.9385 274.94 67.9541C274.94 67.6409 274.846 67.3948 274.658 67.2158C274.477 67.0368 274.232 66.9472 273.923 66.9472C273.66 66.9473 273.449 67.0069 273.291 67.1262C273.14 67.238 273.034 67.3797 272.974 67.5512C272.921 67.7153 272.876 67.8832 272.839 68.0548C272.809 68.2263 272.759 68.3829 272.692 68.5246C272.631 68.6662 272.537 68.7519 272.409 68.7817H267.166C266.744 68.7817 266.533 68.67 266.533 68.4463C266.646 67.3723 266.906 66.4511 267.313 65.6829C267.72 64.9073 268.262 64.2956 268.94 63.8481C269.618 63.4007 270.383 63.0764 271.234 62.875C272.085 62.6662 273.057 62.5617 274.149 62.5617Z" fill="#009AD5"/>
<path d="M200.839 62.9644C201.216 62.9644 201.732 62.9718 202.387 62.9868C203.043 63.0017 203.446 63.0092 203.597 63.0092H204.456C204.576 63.0092 204.636 63.0316 204.636 63.0764C204.681 65.1497 204.704 68.1182 204.704 71.9815V79.7454C204.651 79.9392 204.41 80.0363 203.981 80.0363H203.687C203.295 80.0363 202.719 80.0435 201.958 80.0584C201.197 80.0733 200.621 80.0808 200.229 80.0808H196.907C196.802 80.0435 196.583 79.5738 196.252 78.6713C195.898 77.6943 195.37 76.2809 194.67 74.4313C193.969 72.5817 193.577 71.5488 193.494 71.3325C193.494 71.7725 193.491 72.4288 193.483 73.3014C193.476 74.174 193.472 74.8305 193.472 75.2706C193.472 75.4346 193.474 75.6397 193.477 75.8858L193.511 77.6086C193.515 77.8547 193.517 78.0599 193.517 78.2239V79.6334C193.517 79.9765 193.366 80.148 193.065 80.148H187.867L187.37 79.8795V74.8229C187.355 72.9732 187.415 69.4454 187.551 64.2397V63.3225C187.551 63.1584 187.581 63.0614 187.641 63.0316H195.415C195.491 63.0316 195.641 63.3151 195.867 63.8819C196.101 64.4487 196.38 65.1796 196.704 66.0745C197.035 66.962 197.269 67.5737 197.404 67.9093L198.986 72.0039V67.6632C198.986 67.2903 198.994 66.6077 199.009 65.6157C199.031 64.6164 199.039 63.837 199.031 63.2777C199.031 63.0689 199.634 62.9644 200.839 62.9644Z" fill="#009AD5"/>
<path d="M209.386 62.9198C210.621 63.0093 212.505 63.054 215.036 63.054C215.638 63.054 216.053 63.039 216.279 63.0092V80.1256H208.979C209.009 77.9553 209.062 76.3667 209.137 75.3599C209.137 72.2275 209.183 69.0503 209.273 65.8284C209.243 65.202 209.228 64.7396 209.228 64.4413V64.1056C209.198 63.7774 209.182 63.5089 209.182 63.3001C209.182 63.1584 209.25 63.0317 209.386 62.9198Z" fill="#009AD5"/>
<path d="M141.875 74.9125C142.598 74.9125 142.959 75.0169 142.959 75.2258C142.99 76.6577 143.005 77.7541 143.005 78.5148V78.8951C143.005 78.9473 143.009 79.0293 143.016 79.1412C143.024 79.2456 143.027 79.3276 143.027 79.3873C143.027 79.8049 142.944 80.0139 142.779 80.0139H137.219L136.858 79.6782V79.3425C136.858 79.2306 136.861 79.0554 136.869 78.8168C136.876 78.5707 136.88 78.3731 136.88 78.2239V77.6421C136.88 75.8223 137.001 74.9125 137.242 74.9125H141.875Z" fill="#009AD5"/>
<path d="M20.6974 73.8999L24.6162 79.0164L20.4074 79.083L16.0832 79.3947L16.6385 75.0049L16.6714 69.3239L20.6974 73.8999Z" fill="#009AD5"/>
<path d="M92.4448 68.8747L95.1406 74.2036L90.0825 73.8027L85.8015 73.1936L88.0448 68.3545L91.1147 63.2828L92.4448 68.8747Z" fill="#009AD5"/>
<path d="M14.5658 60.3663L16.5028 67.5532L8.89687 65.8488L1.83422 64.4121L7.22953 58.2616L12.6661 53.55L14.5658 60.3663Z" fill="#009AD5"/>
<path d="M99.3515 51.5442L105.804 55.3207L98.8766 57.6928L92.4448 59.3078V53.8715L93.3084 48.4375L99.3515 51.5442Z" fill="#009AD5"/>
<path d="M228.432 23.085C239.15 23.085 241.827 25.653 241.827 31.1029C241.827 31.6925 241.792 32.3162 241.756 32.974L241.75 33.0894C240.211 32.9325 237.534 32.8175 235.407 32.8175C234.066 32.8175 232.846 32.8558 232.059 32.8941C232.098 32.5841 232.098 32.3085 232.098 32.1172C232.098 30.7164 231.505 29.9356 229.223 29.9356C227.448 29.9356 226.782 30.5596 226.782 31.6082C226.782 33.0855 227.374 34.0614 232.102 34.8C239.863 36.0056 242.265 38.3825 242.265 44.2955C242.265 50.2085 238.836 53.362 228.672 53.362H228.661C217.905 53.362 214.991 50.9892 214.991 45.344C214.991 44.6054 215.03 43.8245 215.111 43.0094L215.685 43.0474C217.449 43.1648 219.771 43.3196 221.965 43.3196C223.147 43.3196 224.213 43.2813 224.999 43.243C224.96 43.5147 224.961 43.7865 224.961 44.0199C224.961 45.7306 225.631 46.4731 227.719 46.4731C229.808 46.4731 230.358 45.811 230.358 44.6054C230.358 42.9712 229.61 42.0374 225.356 41.4519C216.649 40.2846 214.956 37.3643 214.956 32.1518C214.956 25.8866 218.935 23.085 228.432 23.085Z" fill="#009AD5"/>
<path d="M260.546 23.127C271.066 23.127 276.463 26.4721 276.463 37.5634C276.463 48.6546 271.775 53.3237 260.546 53.3237C249.356 53.3237 244.904 48.8077 244.904 37.5634C244.904 26.3191 250.026 23.127 260.546 23.127Z" fill="#009AD5"/>
<path d="M292.904 23.6322C292.83 25.632 292.791 31.3691 292.751 37.3525L292.745 38.2637V41.9608L293.702 41.9435C295.58 41.9102 297.712 41.8722 299.758 41.8037C299.758 42.7473 299.748 43.6836 299.738 44.6077V44.6148C299.729 45.5165 299.719 46.4091 299.719 47.2922C299.719 48.183 299.729 49.1038 299.738 50.0278C299.748 50.9612 299.758 51.8997 299.758 52.8187H280.059L280.074 51.9392C280.122 49.1988 280.218 43.7744 280.218 38.2255C280.218 31.9986 280.218 26.4338 280.059 23.6322H292.904Z" fill="#009AD5"/>
<path fill-rule="evenodd" clip-rule="evenodd" d="M138.753 24.7029C144.615 24.7029 148.133 26.3104 148.133 32.0244C148.133 35.4229 147.262 36.8428 144.577 37.8149C143.895 38.0407 143.027 38.1902 142.043 38.3012V38.4886C142.988 38.5651 143.782 38.6762 144.426 38.8637C147.452 39.7249 148.397 41.7762 148.397 45.3622C148.397 50.7433 145.902 52.722 139.055 52.722V52.7181H120.259C120.41 48.7225 120.449 44.6504 120.449 38.7106C120.449 32.7708 120.41 28.6258 120.259 24.7029H138.753ZM134.289 40.7237C133.482 40.7237 132.603 40.7569 131.664 40.7924L131.453 40.8003C131.453 42.7445 131.453 44.6465 131.492 46.2922C132.549 46.3687 133.495 46.3687 134.328 46.3687C136.18 46.3687 136.939 45.6608 136.94 43.5291C136.94 41.3973 136.106 40.7274 134.293 40.7274L134.289 40.7237ZM134.328 30.4896C133.46 30.4896 132.511 30.4897 131.492 30.5662C131.453 32.0971 131.453 34.0797 131.453 36.0967C132.476 36.1349 133.383 36.1349 134.216 36.1349C135.994 36.0966 136.823 35.2736 136.823 33.073V33.0653C136.823 31.0867 136.029 30.4896 134.328 30.4896Z" fill="#009AD5"/>
<path fill-rule="evenodd" clip-rule="evenodd" d="M199.334 24.6992C200.051 28.4347 203.496 45.6186 205.386 52.7181H192.414C192.375 51.6349 192.263 49.84 192.073 47.6739H186.361C186.133 49.8017 186.02 51.5967 185.982 52.7181H174.145C175.923 45.6568 179.286 28.362 179.856 24.6992H199.334ZM189.124 28.9931C188.9 30.413 188.593 32.2042 188.252 33.8116C187.838 36.1653 187.458 38.7794 187.117 41.3206H191.352C191.011 38.7794 190.597 36.127 190.178 33.7733C189.859 32.4859 189.622 30.9848 189.418 29.6977C189.38 29.4543 189.343 29.2183 189.306 28.9931H189.124Z" fill="#009AD5"/>
<path d="M164.617 24.6992C164.543 26.6196 164.508 32.1307 164.471 37.8764L164.465 38.7449V42.2929L165.55 42.2727C167.31 42.2403 169.293 42.2037 171.2 42.1437C171.2 43.0509 171.19 43.9473 171.18 44.8339C171.17 45.7016 171.161 46.5601 171.161 47.4099C171.161 48.2643 171.171 49.1463 171.18 50.0329C171.19 50.9295 171.2 51.8312 171.2 52.7144H152.287L152.296 52.1864C152.341 49.6745 152.438 44.2531 152.438 38.7066C152.438 32.7325 152.438 27.3859 152.287 24.6992H164.617Z" fill="#009AD5"/>
<path d="M12.2917 44.7582V51.7101L6.28151 48.573L0 45.9948L7.23354 42.1616L13.5809 39.0103L12.2917 44.7582Z" fill="#009AD5"/>
<path d="M97.4846 37.5733L93.0371 41.8517L91.8835 37.9924L90.4217 33.0622L96.6703 33.1958L101.56 32.3253L97.4846 37.5733Z" fill="#009AD5"/>
<path d="M89.0975 19.5589L86.8912 25.6748L81.2532 22.9021L76.8325 19.4596L83.6015 15.7254L92.2948 12.3862L89.0975 19.5589Z" fill="#009AD5"/>
<path d="M25.4841 15.515L32.0536 17.6867L26.5469 21.1598L21.7994 24.9725L20.6109 19.4415L18.9127 13.9102L25.4841 15.515Z" fill="#009AD5"/>
<path d="M189.729 12.9686C193.169 12.9686 195.514 14.6106 195.514 17.6379C195.514 20.6652 193.32 22.2344 189.729 22.2344C186.137 22.2343 184.017 20.5159 184.017 17.6379C184.017 14.6106 186.288 12.9686 189.729 12.9686Z" fill="#009AD5"/>
<path d="M46.8229 8.62983L49.8906 13.558L39.5193 15.8167L41.3904 10.1011L43.2576 0L46.8229 8.62983Z" fill="#009AD5"/>
<path d="M64.7154 8.00037L66.4858 14.7177L60.7799 14.2116L55.5841 13.4769L59.6922 8.12796L64.2961 0.121355L64.7154 8.00037Z" fill="#009AD5"/>
</svg>
